<svg id="Capa_1" enable-background="new 0 0 512 512" height="512" viewBox="0 0 512 512" width="512" xmlns="http://www.w3.org/2000/svg"><g><g><path d="m270.622 30.642c38.032-9.157 93.862-4.919 91.392 45.4l46.654-1.689c21.774-69.997-92.92-68.545-136.252-63.053 3.415 6.869 1.858 13.03-1.794 19.342z" fill="#288fc9"/><path d="m206.625 78.618c5.508-1.07 13.545-1.452 20.809-1.398l-1.985-36.416c-7.974.543-16.246.793-24.518.768l2.382 37.643z" fill="#288fc9"/><path d="m140.888 403.985c16.919 24.906 39.239 14.759 54.977-5.643 10.295-13.21 23.203-20.367 39.186-22.857l-.647-2.927.759 2.902c34.813-4.587 53.92-35.214 40.919-68.205-3.793 10.142-9.219 23.352-18.959 28.18 18.809-16.447 22.506-38.629 11.626-61.447-3.386 17.507-13.517 35.765-25.233 47.659 16.572-23.068 33.471-47.004 16.341-75.215-4.804 21.458-14.159 44.508-30.248 59.035 10.488-11.101 42.368-63.914 24.211-75.371-16.166-2.385-23.072 28.764-28.333 40.033-4.359 10.918-17.094 40.539-32.849 32.579-3.617-3.531-1.179-10.042-.378-12.183 1.673-7.553 12.645-24.543 7.293-31.715-4.275-4.745-11.826-1.391-15.798 2.289-20.019 16.156-30.687 43.061-27.179 68.544 7.011 36.619-53.155 31.988-15.688 74.342z" fill="#ffdac4"/><path d="m332.104 342.512c-34.03-.489-52.305 41.937-69.366 67.107-41.476 59.214-132.158 67.326-184.334 17.705 3.766 22.487 8.597 43.593 15.467 65.312 2.653 8.388 4.229 13.645 13.667 14.419 26.906 2.321 56.413-.208 83.588-1.394 4.134-37.182 52.095-28.723 77.938-39.631 12.753-5.776 22.694-17.251 26.594-30.697 4.314-25.285 8.578-49.049 40.705-46.909 1.031-15.136 1.782-30.385 2.23-45.413-2.017-.219-4.465-.527-6.489-.499z" fill="#fff"/><path d="m114.082 261.702c72.74-40.269 158.22-24.031 185.503-127.546-13.133-11.745-30.303-19.741-48.629-23.322-5.185 116.184-133.202 65.169-164.313 135.712-4.202 13.033-6.607 28.056-8.966 42.57l5.472 2.091c9.59-14.62 23.496-24.761 30.933-29.505z" fill="#fff"/><path d="m314.891 488.216c21.557-21.4 16.988-69.11 21.405-98.798-31.873-1.978-35.233 21.377-39.68 46.195-6.584 25.091-32.185 36.836-56.246 37.93-21.298 3.258-42.918 4.924-48.411 32.076 32.254-3.765 99.776 1.038 122.932-17.403z" fill="#b2eaf9"/><path d="m249.9 113.236-.004-2.566c-71.144-12.85-133.898 46.097-156.364 113.15l4.828 3.246c53.959-44.488 143.973-15.031 151.54-113.83z" fill="#b2eaf9"/><g fill="#5bd0fc"><path d="m173.434 458.919c109.271-9.764 94.212-121.664 165.179-116.959-2.91-68.602 12.897-152.4-38.05-207.149-32.428 135.564-198.45 73.461-225.951 180.783-3.403 36.562-2.01 73.449 3.543 109.757 24.992 23.915 60.595 36.576 95.279 33.568zm-33.338-54.316c-22.496-26.223-11.813-34.531 10.204-53.054 4.962-5.552 6.595-12.263 5.291-21.764-3.633-28.033 9.433-61.403 35.732-74.039 21.599-2.117 4.203 25.966 1.881 35.122-4.821 9.993 2.431 16.88 11.746 9.462 20.31-16.473 20.512-44.159 35.117-64.205 10.656-15.176 23.881-4.528 19.478 10.424 6.846 6.716 9.052 17.818 8.295 28.483 7.661 4.433 8.897 22.81 7.556 31.152 13.724 22.535 2.324 54.742-21.771 64.921-12.758 5.728-28.097 5.526-40.139 12.58-12.781 7.328-20.872 23.059-33.683 31.186-14.735 10.488-30.947 2.946-39.707-10.268z"/><path d="m170.069 39.449c29.212 1.815 56.602 1.849 82.09-3.137 9.94-1.102 24.398-8.097 20.816-20.301-1.196-4.565-5.161-9.694-12.705-10.399-26.44-1.532-80.471-3.699-103.369 9.457-13.211 11.826-2.993 25.224 13.168 24.38z"/><path d="m231.575 78.287c-27.399-2.602-64.728 8.843-55.023 42.925 25.975-13.267 56.086-17.035 84.158-9.08 8.34-21.919-7.001-35.402-29.135-33.845z"/></g><path d="m423.148 193.2c-8.002 15.48-47.549 82.767-5.521 83.281 41.292-3.16 12.681-66.497 5.521-83.281z" fill="#ffb3b3"/><path d="m379.892 207.987c42.99-1.228 14.428-66.307 6.923-83.308-7.743 15.331-46.787 80.686-6.923 83.308z" fill="#ffb3b3"/></g><g><path d="m358.734 78.919c.669 3.222 48.2-1.509 50.338-.578 13.511-11.234 4.759-41.64-7.965-51.81-37.056-24.808-85.941-23.524-128.578-19.249-8.826-12.756-105.739-7.189-118.124 4.67-6.353 5.094-10.129 14.929-5.449 22.574 10.372 13.59 32.703 8.082 48.151 9.988.003.008 2.078 32.804 2.085 32.813-19.605 5.5-32.377 23.382-26.936 42.805-119.683 70.77-118.367 252.445-82.153 373.844 3.806 21.74 24.385 17.151 41.956 18.024 20.515-.004 40.805-1.58 61.186-2.435 34.146-4.119 98.472 1.713 124.301-18.352 33.817-38.635 24.244-194.393 23.575-249.773-.555-51.638-18.388-115.492-75.948-131.052 8.663-22.719-12.068-38.357-33.893-36.102l-1.682-30.835c13.72-1.921 28.256-1.664 40.474-9.743 14.319.58 29.819-5.096 44.616-2.664 20.53 2.048 30.974 11.592 35.372 17.098 6.164 7.719 9.077 18.173 7.791 27.967-.132 1.022.19 2.049.883 2.81zm-239.88 100.296c30.403-45.263 76.772-73.497 128.051-65.975-3.522 92.016-98.727 68.855-150.549 111.6 6.124-16.94 13.589-32.082 22.498-45.625zm-29.853 69.253c32.895-69.844 157.214-20.376 164.892-133.913 15.883 3.537 30.577 10.609 42.346 20.682-29.214 118.98-156.683 73.673-215.596 154.326 2.07-14.081 4.972-28.408 8.358-41.095zm84.797 255.054c-21.897 1.165-44.54 2.369-66.003.546-7.375-.627-8.366-3.775-11.015-12.191-5.968-18.957-10.603-37.771-14.019-57.149 53.806 45.717 141.846 34.445 182.397-23.346 16.861-24.801 36.206-69.514 70.346-65.691-.418 13.191-1.066 26.373-1.934 39.535-30.896-.711-37.028 24.375-40.788 49.271-3.66 12.614-12.988 23.379-24.954 28.796-26.292 10.412-73.178 3.163-79.341 39.481-4.901.228-9.857.491-14.689.748zm139.111-17.549c-23.495 17.585-85.899 12.687-117.275 16.484 15.015-44.45 86.196-5.858 103.862-66.013 3.899-21.038 6.413-44.757 33.592-44.242-4.398 28.518.261 72.603-20.179 93.771zm21.224-244.125c1.884 32.17 2.391 64.513 1.563 96.827-36.623-4.21-58.662 41.377-76.186 68.589-39.982 57.23-128.699 65.476-178.546 16.607-5.379-35.573-6.695-71.946-3.403-107.727 26.642-103.172 189.966-45.451 224.481-175.471 25.669 26.65 30.117 66.653 32.091 101.175zm-82.61-156.855c7.728 4.633 10.718 15.4 6.936 23.483-26.009-6.777-55.155-3.525-79.811 8.437-6.666-36.872 48.015-41.421 72.875-31.92zm-27.251-10.754c-5.772.032-12.031.317-18.179 1.43l-1.975-31.109c6.125-.022 12.299-.199 18.503-.582zm41.013-45.681c-15.896 9.695-98.954 14.39-110.364 2.319-6.693-23.5 39.3-20.436 53.699-22.829 18.791-1.057 36.074-.873 51.369.547 11.425 1.299 13.879 14.175 5.296 19.963zm90.242 15.221c-16.698-22.324-53.696-22.576-79.743-17.02 1.882-3.942 2.18-8.651.688-12.964 40.124-3.991 146.914-6.76 130.058 57.637l-41.401 1.496c.379-10.478-3.022-20.911-9.602-29.149z"/><path d="m402.787 200.645c12.106-12.709-5.472-66.778-12.819-78.358-7.177-13.359-41.264 65.149-28.39 80.841 7.396 13.597 34.805 10.688 41.209-2.483zm-21.609 4.315c-34.038-.318-4.86-52.987 5.323-73.531 8.254 21.37 29.064 70.633-5.323 73.531z"/><path d="m437.926 220.528c-6.597-17.698-11.06-37.513-17.757-29.972-3.624 6.029-35.033 59.521-22.26 81.095 3.481 5.879 9.632 8.853 18.298 8.853 31.741-1.969 30.798-27.99 21.719-59.976zm-4.824 45.068c-2.976 5.009-8.077 7.588-15.594 7.886-34.041-.327-4.857-52.983 5.324-73.531 7.647 17.423 19.101 50.785 10.27 65.645z"/><path d="m278.534 305.33c1.04-10.72-.2-24.051-7.599-32.229.474-10.529-2.198-20.502-8.171-27.689 4.331-17.027-13.546-28.221-25.125-11.052-13.26 14.957-19.376 65.621-42.207 65.497-3.184-3.693 6.809-22.38 7.688-26.906 1.26-3.357 4.21-11.221-.542-16.748-5.249-6.482-16.173-3.338-21.334 1.783-21.086 17.018-32.323 45.361-28.628 72.206 5.931 27.527-31.896 26.437-27.525 54.221 1.821 8.887 7.848 16.211 12.691 22.095 9.385 14.24 27.665 22.273 43.624 10.887 12.939-8.057 20.992-23.756 33.591-31.127 11.86-6.843 27.132-6.629 39.849-12.432 25.562-10.85 37.279-44.201 23.688-68.506zm-3.688 37.365c-15.168 40.297-57.718 19.586-81.226 53.665-14.808 18.911-34.608 29.182-50.437 5.703-4.578-5.561-9.766-11.866-11.239-19.053-1.26-6.149 1.173-11.331 8.137-17.327 42.113-26.648-4.394-59.344 45.558-102.254 7.81-7.229 16.145-4.12 10.931 7.067-1.941 8.638-14.049 25.973-6.031 34.36 4.623 4.523 11.8 2.568 16.862-1.376 21.016-16.686 21.406-44.602 35.896-65.008 7.592-10.94 15.368-4.406 12.436 6.606-3.568 21.328-13.635 41.803-28.346 57.654-3.136 3.282 2.09 8.129 5.127 4.758 13.554-14.604 23.389-32.904 28.238-52.286 10.332 24.032-5.672 45.871-19.698 63.922-2.816 3.553 2.82 7.904 5.545 4.264 8.667-11.27 18.8-24.471 22.654-39.438 6.639 16.978.725 37.494-13.855 48.39-3.654 2.705.691 8.366 4.243 5.561 7.103-5.418 12.672-12.906 15.959-21.246 2.379 8.488 2.173 17.772-.754 26.038z"/></g></g></svg>