<svg id="flat" height="512" viewBox="0 0 512 512" width="512" xmlns="http://www.w3.org/2000/svg"><path d="m455.999 128h-144a7.99991 7.99991 0 0 1 -3.96875-14.94629l56-32a7.99833 7.99833 0 0 1 3.96875-1.05371h32a7.99833 7.99833 0 0 1 3.96875 1.05371l56 32a7.99991 7.99991 0 0 1 -3.96875 14.94629zm-113.875-16h83.75l-28-16h-27.75z" fill="#718799"/><path d="m472 208h-176a8.00008 8.00008 0 0 1 -4.24023-14.78418l64-40a7.99922 7.99922 0 0 1 4.24023-1.21582h48a7.99922 7.99922 0 0 1 4.24023 1.21582l64 40a8.00008 8.00008 0 0 1 -4.24023 14.78418zm-148.10547-16h120.21094l-38.39942-24h-43.41205z" fill="#718799"/><path d="m488 288h-208a8.00008 8.00008 0 0 1 -4.24023-14.78418l64-40a7.99922 7.99922 0 0 1 4.24023-1.21582h80a7.99922 7.99922 0 0 1 4.24023 1.21582l64 40a8.00008 8.00008 0 0 1 -4.24023 14.78418zm-180.10547-16h152.21094l-38.39942-24h-75.41205z" fill="#718799"/><path d="m463.91016 478.80566-63.24073-418.97066 43.76807-29.17875a8.00005 8.00005 0 0 0 -4.4375-14.65625h-112a8.00005 8.00005 0 0 0 -4.4375 14.65625l43.76807 29.17875-63.24073 418.9707a7.99942 7.99942 0 0 0 7.91016 9.1943h32a7.99955 7.99955 0 0 0 7.91113-6.81348l22.97852-153.18652h18.2207l22.97852 153.18652a7.99955 7.99955 0 0 0 7.91113 6.81348h32a7.99942 7.99942 0 0 0 7.91016-9.19434zm-50.33204-446.80566-24 16h-11.15624l-24-16zm17.31153 440-22.97852-153.18652a7.99955 7.99955 0 0 0 -7.91113-6.81348h-32a7.99955 7.99955 0 0 0 -7.91113 6.81348l-22.97852 153.18652h-15.8125l61.585-408h2.23438l61.585 408z" fill="#8098ab"/><path d="m168 368h216v120h-216z" fill="#b9cd2a"/><path d="m24 344h144v144h-144z" fill="#c1d439"/><path d="m248 264h-168l-15.56-40-6.22-16-12.44-32-6.22-16-15.56-40h168l15.56 40 6.22 16 12.44 32 6.22 16z" fill="#8be0e8"/><path d="m112 264h32v80h-32z" fill="#b9cd2a"/><path d="m144 264h32v32h-32z" fill="#acc221"/><path d="m176 280h24v16h-24z" fill="#a2ba18"/><path d="m304 368h16v120h-16z" fill="#acc221"/><path d="m232 368h16v120h-16z" fill="#acc221"/><g fill="#d9eb5e"><path d="m192 424h24v16h-24z"/><path d="m192 392h24v16h-24z"/><path d="m264 424h24v16h-24z"/><path d="m264 392h24v16h-24z"/><path d="m336 424h24v16h-24z"/><path d="m336 392h24v16h-24z"/></g><path d="m240 368 72-56v56z" fill="#a2ba18"/><path d="m168 368 72-56v56z" fill="#a2ba18"/><path d="m88 344-8-32h-48l-8 32z" fill="#b9cd2a"/><path d="m24 376h112v48h-112z" fill="#d9eb5e"/><path d="m72 376h16v48h-16z" fill="#cde046"/><path d="m48 448h16v16h-16z" fill="#d9eb5e"/><path d="m80 448h16v16h-16z" fill="#d9eb5e"/><path d="m112 448h16v16h-16z" fill="#d9eb5e"/><path d="m312 368 72-56v56z" fill="#a2ba18"/><path d="m232.43994 224-6.22-16h-47.40988l-12.4502-32h47.42014l-6.22-16h-47.41986l-15.56006-40h-17.16016l15.55 40h-38.82978l-15.56006-40h-17.16016l15.55008 40h-47.40994l6.22 16h47.40988l12.4502 32h-47.42014l6.22 16h47.41992l15.56006 40h17.17017l-15.56015-40h38.82983l15.56006 40h17.17017l-15.56006-40zm-109.62988-16-12.4502-32h38.83008l12.4502 32z" fill="#5bd2de"/></svg>