<svg height="512pt" viewBox="0 0 512 512" width="512pt" xmlns="http://www.w3.org/2000/svg"><g fill="#09426d"><path d="m497 512h-482c-8.285156 0-15-6.714844-15-15s6.714844-15 15-15h482c8.285156 0 15 6.714844 15 15s-6.714844 15-15 15zm0 0"/><path d="m497 415.601562h-482c-8.285156 0-15-6.71875-15-15 0-8.285156 6.714844-15 15-15h482c8.285156 0 15 6.714844 15 15 0 8.28125-6.714844 15-15 15zm0 0"/><path d="m400.601562 319.199219h-289.203124c-8.28125 0-15-6.714844-15-15 0-8.285157 6.71875-15 15-15h289.203124c8.28125 0 15 6.714843 15 15 0 8.285156-6.714843 15-15 15zm0 0"/><path d="m63.199219 126.398438c-8.285157 0-15-6.714844-15-15v-96.398438c0-8.285156 6.714843-15 15-15 8.285156 0 15 6.714844 15 15v96.398438c0 8.285156-6.714844 15-15 15zm0 0"/><path d="m448.800781 126.398438c-8.285156 0-15-6.714844-15-15v-96.398438c0-8.285156 6.714844-15 15-15 8.285157 0 15 6.714844 15 15v96.398438c0 8.285156-6.714843 15-15 15zm0 0"/></g><path d="m448.800781 96.398438h-385.601562c-8.285157 0-15 6.714843-15 15 0 61.425781 49.976562 111.402343 111.402343 111.402343 41.117188 0 77.097657-22.394531 96.398438-55.625 19.300781 33.230469 55.28125 55.625 96.398438 55.625 61.425781 0 111.402343-49.976562 111.402343-111.402343 0-8.285157-6.714843-15-15-15zm-289.199219 96.402343c-39.761718 0-72.957031-28.65625-80.015624-66.402343h160.027343c-7.058593 37.746093-40.253906 66.402343-80.011719 66.402343zm192.796876 0c-39.757813 0-72.953126-28.65625-80.011719-66.402343h160.027343c-7.058593 37.746093-40.253906 66.402343-80.015624 66.402343zm0 0" fill="#91e1ff"/></svg>